├âΓÇáon Flux ist ein US-amerikanischer Science-Fiction-Film von Regisseurin Karyn Kusama. Gedreht wurde der Film im Jahr 2005 komplett in Deutschland an den Drehorten Berlin und Potsdam sowie im Filmstudio Babelsberg. Hauptdarstellerin ist die Oscar-Preistr├â┬ñgerin Charlize Theron.

Input #0, matroska, from '├âΓÇáon Flux (2005).mkv':
  Duration: 01:32:49.24, start: 0.000000, bitrate: N/A
    Stream #0.0(ger): Video: h264, yuv420p, 1280x544, PAR 1:1 DAR 40:17, 23.98 tbr, 1k tbn, 47.95 tbc
    Stream #0.1(ger): Audio: ac3, 48000 Hz, 5.1, s16
    Stream #0.2(eng): Subtitle: 0x0000
    Stream #0.3(rum): Subtitle: 0x0000
    Stream #0.4(ger): Subtitle: 0x0000
    Stream #0.5(spa): Subtitle: 0x0000
    Stream #0.6(por): Subtitle: 0x0000
    Stream #0.7(swe): Subtitle: 0x0000
    Stream #0.8(fin): Subtitle: 0x0000
    Stream #0.9(nor): Subtitle: 0x0000
    Stream #0.10(dut): Subtitle: 0x0000
    Stream #0.11(bul): Subtitle: 0x0000
    Stream #0.12(cze): Subtitle: 0x0000
    Stream #0.13: Subtitle: 0x0000
    Stream #0.14(heb): Subtitle: 0x0000
    Stream #0.15(slo): Subtitle: 0x0000
    Stream #0.16(slv): Subtitle: 0x0000
    Stream #0.17(hun): Subtitle: 0x0000
    Stream #0.18: Attachment: 0x0000
    Stream #0.19: Attachment: 0x0000